<svg xmlns="http://www.w3.org/2000/svg" xmlns:dc="http://purl.org/dc/elements/1.1/" xmlns:ns2="http://creativecommons.org/ns#" xmlns:rdf="http://www.w3.org/1999/02/22-rdf-syntax-ns#" width="698.4pt" height="122.4pt" viewBox="0 0 698.4 122.4" version="1.1">
 <metadata>
  <rdf:RDF>
   <ns2:Work>
    <dc:type rdf:resource="http://purl.org/dc/dcmitype/StillImage" />
    <dc:date>2025-06-02T14:18:43.319113</dc:date>
    <dc:format>image/svg+xml</dc:format>
    <dc:creator>
     <ns2:Agent>
      <dc:title>Matplotlib v3.6.3, https://matplotlib.org/</dc:title>
     </ns2:Agent>
    </dc:creator>
   </ns2:Work>
  </rdf:RDF>
 </metadata>
 <defs>
  <style type="text/css">*{stroke-linejoin: round; stroke-linecap: butt}</style>
 </defs>
 <g id="figure_1">
  <g id="patch_1">
   <path d="M 0 122.4  L 698.4 122.4  L 698.4 0  L 0 0  z " style="fill: #ffffff" />
  </g>
  <g id="axes_1">
   <g id="line2d_1">
    <path d="M 31.745455 116.836364  L 32.328177 116.836364  L 34.135992 115.962951  L 34.73486 115.17688  L 35.132792 114.914857  L 35.45806 114.565492  L 36.687563 113.954103  L 38.607022 113.517397  L 38.873765 113.342714  L 39.612825 113.080691  L 40.909541 111.945255  L 41.557195 110.984501  L 42.790399 109.4997  L 43.91259 108.364264  L 44.497451 107.665534  L 44.699355 107.490852  L 45.394488 106.442757  L 46.309418 105.394662  L 46.925976 104.870615  L 49.082858 102.949108  L 49.621431 102.861767  L 51.022665 101.901013  L 51.769359 101.63899  L 52.404996 101.202283  L 53.162762 100.765577  L 53.426292 100.503554  L 54.681283 99.717483  L 57.028 97.970658  L 58.320687 97.708634  L 58.732978 97.708634  L 61.20592 98.494705  L 62.647497 98.407364  L 64.057587 98.14534  L 64.176566 98.057999  L 64.864472 97.883317  L 71.088783 94.389667  L 71.709087 94.127644  L 72.161716 93.778279  L 72.973071 93.079549  L 73.16381 92.817525  L 74.320437 92.031454  L 75.298857 90.983359  L 75.624987 90.546653  L 76.605418 89.760582  L 77.384198 89.149194  L 77.558992 88.974511  L 78.093924 88.799829  L 79.286991 89.149194  L 80.249244 89.061852  L 83.452476 87.48971  L 85.114901 87.140345  L 86.834604 87.315028  L 87.553806 87.227687  L 88.354455 86.878322  L 88.792301 86.354274  L 88.928758 85.917568  L 89.376679 85.393521  L 90.401475 83.297331  L 91.758997 81.637848  L 93.248284 80.415071  L 94.624085 79.541658  L 94.932952 79.279635  L 95.55302 78.93027  L 96.361999 78.144199  L 97.225877 78.493564  L 97.468953 78.668246  L 97.96972 79.366976  L 98.277597 79.541658  L 99.431969 80.502412  L 100.568957 82.161895  L 100.86266 82.423919  L 102.469554 85.480862  L 103.012239 86.616298  L 103.410254 87.402369  L 103.991235 88.799829  L 104.500246 89.760582  L 105.356745 90.721336  L 105.489166 90.808677  L 105.687104 91.245383  L 106.183643 91.769431  L 107.109045 92.031454  L 107.985977 91.856772  L 108.894534 91.070701  L 109.221432 91.158042  L 110.037854 90.197288  L 110.334137 89.5859  L 111.469187 87.839075  L 112.393629 85.742886  L 112.647667 84.956815  L 115.756389 77.707493  L 115.836416 77.445469  L 117.319834 74.825232  L 119.228336 70.894877  L 119.587205 70.45817  L 120.290102 69.148052  L 120.736628 68.624005  L 120.912886 68.361981  L 121.648158 67.663251  L 121.801781 67.401227  L 123.297484 66.964521  L 123.903673 66.87718  L 124.640954 67.051862  L 125.390244 67.051862  L 126.441535 67.663251  L 127.285287 67.837933  L 128.399236 66.87718  L 129.458285 65.829085  L 130.159571 65.567062  L 130.985469 65.741744  L 132.545143 68.187298  L 133.429188 69.759441  L 133.66288 69.934123  L 133.900055 70.283488  L 134.755804 71.1569  L 135.134397 71.593606  L 135.38723 71.680948  L 136.729112 71.680948  L 137.332303 71.942971  L 137.432578 72.204995  L 138.140551 73.25309  L 138.856833 73.689796  L 139.917747 74.213843  L 141.148902 74.126502  L 142.01405 74.388526  L 142.436464 74.737891  L 142.991987 74.912573  L 143.446721 75.261938  L 143.882746 75.873327  L 145.760378 77.358128  L 146.190045 77.882175  L 148.134408 79.104952  L 148.404796 79.366976  L 150.177979 79.891023  L 151.656025 80.677094  L 153.754648 81.463165  L 154.044188 81.637848  L 156.607432 82.51126  L 156.729591 82.598601  L 157.66934 82.685943  L 158.907507 82.598601  L 160.46369 83.559355  L 161.00966 83.996061  L 162.59615 84.956815  L 163.264805 85.393521  L 164.342483 86.354274  L 165.84097 86.441616  L 166.80108 86.354274  L 167.355647 86.179592  L 168.350906 86.266933  L 170.130804 87.315028  L 170.241085 87.315028  L 170.464596 87.48971  L 171.189877 87.751734  L 173.146182 88.799829  L 174.059351 90.546653  L 174.651267 91.682089  L 175.68274 93.16689  L 176.468551 93.341573  L 176.880715 93.254231  L 177.500596 93.16689  L 178.250056 92.642843  L 178.498648 92.642843  L 179.221607 91.856772  L 179.723261 91.682089  L 180.233031 91.158042  L 181.217963 89.847924  L 181.487323 89.149194  L 182.09742 87.926416  L 183.007678 87.140345  L 183.393919 86.703639  L 183.800165 86.266933  L 185.187075 85.30618  L 187.21731 83.472014  L 188.622707 80.240388  L 189.91916 77.794834  L 190.103964 77.183445  L 190.376312 76.484715  L 190.47146 76.222692  L 190.927442 75.436621  L 191.948125 72.641701  L 192.319399 71.331583  L 192.680383 70.370829  L 192.82148 69.759441  L 193.056791 68.886028  L 193.374075 67.837933  L 195.069111 63.820237  L 195.196079 63.121507  L 195.369794 62.684801  L 195.553325 62.160754  L 196.565768 60.588611  L 197.017807 59.627858  L 197.507261 58.579763  L 198.423513 56.745597  L 198.548666 56.658256  L 199.201636 55.348138  L 199.352466 55.173455  L 199.641271 54.562067  L 203.047919 51.068417  L 203.737142 50.719052  L 204.168231 50.631711  L 205.708183 49.84564  L 206.141462 49.234251  L 206.545603 48.972228  L 207.011336 48.011474  L 207.492474 47.312744  L 208.077616 46.26465  L 208.7577 44.86719  L 208.82826 44.779849  L 210.153961 43.993778  L 211.586186 45.303896  L 212.428519 46.351991  L 213.041488 46.876038  L 213.52449 47.574768  L 213.793282 47.924133  L 214.694753 50.195005  L 215.431646 52.203853  L 215.960831 53.251948  L 217.17815 54.911431  L 218.06134 56.046867  L 218.798509 56.658256  L 219.628379 57.094962  L 219.973395 57.182303  L 221.978309 56.658256  L 223.474138 56.134209  L 225.201987 56.046867  L 225.661079 55.959526  L 226.276269 55.52282  L 227.143212 54.736749  L 227.933321 53.688654  L 228.090309 52.989924  L 228.326115 52.640559  L 228.778449 51.767147  L 228.976972 51.592465  L 229.368161 50.893735  L 229.46824 50.457029  L 230.912363 48.360839  L 231.167495 47.836792  L 231.837156 46.963379  L 232.544131 47.050721  L 234.446672 48.273498  L 234.650885 48.622863  L 235.51179 49.670958  L 236.28428 51.155759  L 236.567406 51.94183  L 237.294952 52.989924  L 237.518611 52.989924  L 237.82086 52.815242  L 238.534337 51.505123  L 238.838688 51.2431  L 239.462483 50.981076  L 239.795058 51.068417  L 241.467007 54.649408  L 241.878374 55.086114  L 242.421005 57.094962  L 242.709165 58.405081  L 243.07142 59.715199  L 243.508888 61.549365  L 244.144195 63.558213  L 244.344503 64.868332  L 244.832033 65.916426  L 245.756729 69.235393  L 245.904394 69.934123  L 246.429503 71.331583  L 246.512907 71.768289  L 247.393193 73.602455  L 247.788873 74.126502  L 249.177879 75.174597  L 250.053019 74.999914  L 251.037378 75.349279  L 251.828167 74.650549  L 252.307565 74.039161  L 252.995998 74.475867  L 253.770523 76.484715  L 254.266699 77.008763  L 254.665373 77.008763  L 254.978514 76.397374  L 255.540376 75.174597  L 256.058722 74.737891  L 256.259943 74.213843  L 256.666922 72.379677  L 256.847844 72.204995  L 257.834848 68.099957  L 258.095715 67.488569  L 258.15822 66.87718  L 258.355121 66.091109  L 258.709292 64.606308  L 258.961702 63.558213  L 259.127397 62.946825  L 259.398012 61.986071  L 259.663406 61.2  L 259.961516 60.588611  L 260.124645 59.627858  L 260.416457 58.579763  L 260.794082 57.61901  L 261.031262 56.832938  L 261.131075 56.570915  L 262.066211 55.173455  L 262.549588 54.212702  L 262.99088 53.601313  L 263.559285 53.077266  L 264.148942 52.465877  L 265.33902 50.107664  L 265.704893 49.758299  L 266.042765 49.670958  L 266.26966 49.758299  L 266.8875 49.84564  L 267.453537 50.195005  L 270.523386 53.863337  L 271.070658 54.300043  L 271.603515 54.474725  L 272.226316 54.300043  L 273.098545 53.601313  L 273.577479 53.426631  L 273.925571 53.164607  L 275.388627 52.553218  L 275.848369 52.116512  L 276.594874 51.505123  L 276.711399 51.505123  L 277.980273 50.369687  L 279.040875 49.758299  L 279.152177 49.583616  L 281.101559 48.186157  L 281.443201 47.924133  L 282.235932 47.662109  L 282.474674 47.662109  L 283.977091 49.234251  L 284.177916 49.234251  L 285.070668 47.574768  L 285.514601 45.478579  L 286.007709 42.858342  L 286.409087 40.936835  L 286.836373 39.277351  L 287.427552 36.831797  L 287.674261 36.395091  L 288.244227 34.560925  L 290.086232 30.630569  L 291.401615 28.709062  L 292.145633 27.486285  L 292.790262 26.700214  L 293.545146 25.215413  L 294.665363 24.167318  L 294.883306 24.079977  L 295.126054 23.730612  L 295.860082 23.206565  L 296.843133 22.682517  L 297.935738 22.245811  L 298.070802 22.15847  L 298.853809 22.15847  L 299.754406 21.634423  L 303.008307 21.721764  L 305.003824 23.119224  L 305.940956 24.516683  L 306.881792 26.525532  L 307.701984 28.272356  L 307.960016 28.709062  L 308.810342 30.892593  L 309.997322 32.988783  L 311.331451 35.696361  L 312.18545 36.831797  L 312.701604 37.79255  L 313.107815 38.49128  L 313.945387 39.976081  L 314.927275 42.159612  L 315.936854 44.255801  L 317.072594 45.915285  L 317.865442 46.351991  L 318.240616 46.701356  L 319.15015 46.963379  L 320.182376 46.26465  L 320.43539 45.740602  L 320.876664 44.692507  L 321.412095 43.644413  L 322.109772 41.548223  L 322.417481 40.58747  L 322.929521 39.015328  L 323.233595 37.617868  L 323.358122 37.181162  L 323.836857 35.783702  L 324.058707 34.822948  L 324.395461 33.862195  L 325.128717 31.416641  L 325.257774 30.805252  L 325.487968 29.582475  L 326.270077 26.612873  L 329.913815 14.734466  L 330.052425 14.385101  L 330.629201 12.9003  L 330.801176 12.550935  L 331.322708 11.328158  L 331.394572 11.328158  L 331.600607 10.978793  L 331.933833 10.018039  L 332.316702 9.40665  L 332.809525 8.882603  L 333.626012 7.834508  L 333.707737 7.834508  L 334.887281 5.650978  L 335.224398 5.563636  L 335.672762 5.82566  L 337.772979 9.668674  L 338.190659 10.192722  L 338.570592 11.153475  L 339.856582 14.035736  L 340.293758 15.258513  L 342.278431 20.411645  L 345.012319 28.097674  L 345.257947 28.447039  L 345.651504 29.320451  L 349.70049 37.443185  L 350.142608 38.054574  L 350.591631 39.539375  L 353.019553 45.216555  L 353.678553 46.351991  L 354.587204 48.622863  L 355.390208 50.369687  L 355.74731 51.155759  L 356.47364 52.902583  L 357.017781 54.736749  L 357.34366 55.52282  L 357.744972 56.046867  L 358.605133 57.706351  L 359.643634 59.627858  L 359.907002 60.50127  L 360.010274 60.50127  L 360.568823 59.627858  L 361.819684 57.182303  L 362.831793 55.872185  L 363.002392 55.697502  L 365.285836 52.116512  L 365.410404 52.116512  L 366.2912 50.981076  L 366.676603 50.54437  L 367.862455 49.496275  L 368.746472 48.360839  L 369.666457 47.924133  L 370.388334 47.662109  L 370.936962 46.963379  L 373.215361 45.129214  L 373.900623 44.779849  L 374.988667 44.779849  L 375.897105 45.129214  L 376.870735 46.089967  L 378.383129 46.701356  L 378.783088 46.614015  L 380.537324 45.216555  L 381.284322 44.692507  L 382.281598 43.731754  L 383.880155 40.936835  L 384.994631 38.665963  L 385.565164 37.967233  L 386.118119 36.657114  L 386.15039 36.657114  L 386.377686 36.220408  L 387.107805 35.172313  L 387.461891 34.735607  L 387.622662 34.21156  L 389.33139 31.154617  L 389.777391 30.281205  L 390.196088 29.669816  L 392.929652 24.167318  L 393.365049 23.468589  L 394.377063 21.45974  L 395.524667 20.324304  L 395.933307 20.149622  L 398.396533 19.887598  L 400.188387 19.974939  L 401.437631 20.586328  L 403.284645 21.023034  L 405.006159 21.983788  L 405.655464 22.8572  L 406.047334 23.468589  L 406.480682 23.905295  L 407.477602 25.652119  L 408.112049 26.525532  L 408.643055 27.398944  L 409.285956 28.447039  L 409.886145 29.582475  L 410.691705 31.591323  L 411.126787 32.8141  L 411.755188 34.822948  L 412.62995 38.578621  L 412.959531 39.626716  L 413.408415 42.334294  L 413.636681 43.557071  L 414.037793 45.041872  L 414.207032 45.740602  L 414.456951 46.351991  L 415.33033 47.400086  L 415.554 47.574768  L 416.907156 46.351991  L 417.577107 46.089967  L 418.092862 46.177308  L 420.300112 47.662109  L 420.735964 48.098815  L 422.669224 49.321593  L 422.962197 49.408934  L 424.127154 50.54437  L 424.873314 50.806394  L 425.159161 51.068417  L 425.449674 51.155759  L 427.201521 52.465877  L 428.198494 52.815242  L 428.880205 52.553218  L 431.166762 49.758299  L 431.944834 48.710204  L 432.194517 48.535522  L 432.263633 48.622863  L 432.950859 48.273498  L 433.478855 48.273498  L 434.099519 48.710204  L 434.588664 49.84564  L 436.257101 52.029171  L 436.541211 52.378536  L 436.669267 52.727901  L 437.065618 53.164607  L 438.012086 55.173455  L 438.696047 57.444327  L 439.064848 58.841787  L 439.463409 60.937976  L 439.77338 62.946825  L 441.21406 68.187298  L 442.16062 72.117654  L 442.672302 73.165749  L 443.029056 74.301185  L 443.657941 75.261938  L 444.024921 75.174597  L 445.300311 73.078407  L 445.983392 72.292336  L 446.259954 72.204995  L 446.958644 72.641701  L 447.155208 72.903725  L 447.710314 73.427772  L 448.284794 73.340431  L 448.891949 73.078407  L 449.196327 73.165749  L 449.717252 73.25309  L 450.942049 72.030313  L 451.212355 71.506265  L 451.305342 71.069559  L 451.42912 71.069559  L 452.424777 68.099957  L 452.685835 67.663251  L 453.26326 65.654403  L 453.962937 63.558213  L 454.231213 62.946825  L 454.386986 60.675953  L 454.389675 60.50127  L 454.540284 60.151905  L 454.919014 58.143057  L 455.62495 56.396232  L 455.634977 56.134209  L 456.105827 54.387384  L 457.131871 53.164607  L 457.517871 52.815242  L 458.007013 51.505123  L 458.381295 50.369687  L 458.815619 50.195005  L 459.514149 50.893735  L 459.86201 51.505123  L 460.290616 52.291195  L 460.464603 52.465877  L 460.949984 52.378536  L 461.322569 51.94183  L 461.588535 51.592465  L 462.06762 50.54437  L 462.521344 49.84564  L 464.312695 47.836792  L 466.080453 46.351991  L 466.744318 46.701356  L 466.976694 47.050721  L 467.974325 47.574768  L 468.746488 48.44818  L 469.043808 48.622863  L 469.94439 49.84564  L 471.551671 52.553218  L 472.89343 53.863337  L 473.033836 53.950678  L 474.715656 54.474725  L 476.89604 54.562067  L 478.78595 55.086114  L 479.47393 54.998773  L 480.84409 54.300043  L 482.518573 51.505123  L 482.665543 51.068417  L 483.117598 50.195005  L 483.902163 47.836792  L 485.284291 45.56592  L 485.937204 44.86719  L 486.459173 44.430484  L 487.648352 42.945683  L 488.445377 42.246953  L 488.934833 42.159612  L 489.494432 42.334294  L 489.958319 42.683659  L 490.544844 44.16846  L 493.230989 47.487427  L 493.795754 47.924133  L 494.93648 48.273498  L 495.307938 48.360839  L 496.110181 48.797545  L 496.627446 49.234251  L 496.850031 48.622863  L 499.687346 51.767147  L 500.592882 53.339289  L 501.809248 55.872185  L 503.180175 59.10381  L 503.445848 59.627858  L 504.270645 62.160754  L 504.878403 63.558213  L 505.383834 64.693649  L 505.641855 65.916426  L 505.741871 66.615156  L 507.455442 71.069559  L 507.784527 72.117654  L 508.507779 73.340431  L 509.46011 75.698644  L 510.007499 76.484715  L 510.207475 76.83408  L 510.457375 77.183445  L 511.199811 78.668246  L 512.03593 79.629  L 512.18369 80.153047  L 512.784119 80.939118  L 513.692005 81.550507  L 514.251473 82.161895  L 515.057596 82.685943  L 517.482029 85.568203  L 517.849788 86.179592  L 518.515287 87.140345  L 519.246699 88.013758  L 519.883126 88.625146  L 521.389124 89.760582  L 522.238689 90.28463  L 522.973646 90.459312  L 523.779461 89.847924  L 524.501053 88.625146  L 525.793112 85.917568  L 526.066579 85.655544  L 527.104814 85.131497  L 528.578379 84.782132  L 529.335387 84.432767  L 529.605928 84.432767  L 530.592508 83.90872  L 531.144512 83.646696  L 531.998495 83.646696  L 533.034463 83.90872  L 534.515381 83.734037  L 537.584064 81.987213  L 537.915082 81.725189  L 538.531832 81.375824  L 540.9483 80.065706  L 542.447896 80.153047  L 543.577939 79.629  L 543.799909 79.454317  L 544.830478 79.017611  L 548.485171 77.794834  L 551.405934 76.659398  L 551.89843 76.310033  L 552.353585 76.13535  L 552.8124 75.611303  L 553.616192 74.999914  L 554.072255 74.737891  L 555.024049 73.777137  L 557.18567 71.942971  L 558.073499 71.331583  L 558.822713 71.506265  L 559.73497 71.593606  L 561.283213 70.545512  L 562.281233 69.148052  L 562.813773 69.060711  L 563.688687 68.973369  L 564.306492 68.886028  L 565.058077 68.187298  L 565.725717 67.57591  L 566.246117 67.313886  L 567.034121 65.829085  L 568.269176 63.558213  L 568.934622 63.034166  L 569.675329 62.859483  L 570.852146 63.558213  L 571.501638 64.344284  L 571.717229 64.606308  L 572.628044 65.130355  L 573.212527 65.305038  L 573.964737 65.043014  L 574.414018 64.693649  L 575.180525 64.518967  L 575.950624 64.431626  L 577.487393 64.693649  L 577.851599 64.868332  L 578.10015 65.130355  L 578.442783 65.654403  L 578.989913 66.091109  L 579.480553 66.789839  L 580.383982 68.187298  L 581.550306 70.45817  L 581.795496 71.1569  L 582.509184 72.467019  L 582.620539 72.816384  L 583.442052 74.475867  L 586.594085 82.074554  L 588.07514 84.432767  L 588.476007 85.393521  L 589.511088 86.528957  L 590.02121 87.48971  L 590.660235 87.926416  L 591.579658 88.625146  L 592.252755 89.061852  L 592.624497 89.149194  L 593.267289 89.061852  L 594.151388 88.450464  L 594.602399 87.839075  L 595.366402 86.616298  L 595.740656 85.830227  L 596.010426 85.131497  L 596.418399 84.520108  L 596.891642 83.472014  L 598.183485 81.550507  L 598.575255 80.589753  L 599.409832 79.366976  L 599.484828 79.192293  L 600.571434 77.794834  L 601.82869 76.83408  L 602.162058 76.397374  L 602.378474 76.13535  L 603.123312 75.698644  L 603.909567 75.785985  L 603.988373 75.960668  L 604.937265 76.746739  L 605.658296 77.270786  L 607.991311 79.192293  L 610.365008 82.685943  L 610.99364 83.734037  L 611.814538 84.520108  L 612.182665 84.694791  L 613.389278 84.782132  L 614.033562 84.869473  L 615.033735 84.694791  L 616.599024 84.956815  L 617.599176 85.655544  L 620.286763 86.528957  L 621.143672 86.441616  L 621.587022 86.266933  L 622.201455 86.528957  L 622.470394 86.703639  L 623.411818 87.227687  L 624.01733 87.751734  L 624.599449 88.363123  L 626.432402 90.371971  L 628.544974 91.944113  L 630.179021 92.642843  L 630.742147 92.904867  L 632.319539 93.86562  L 633.54332 94.826374  L 634.974902 95.26308  L 636.157336 95.525103  L 637.197646 95.612445  L 637.439789 95.699786  L 639.170976 95.699786  L 640.097537 95.350421  L 640.601896 95.26308  L 641.985778 95.175739  L 642.983642 95.350421  L 643.879486 95.787127  L 644.291779 96.311175  L 644.577212 96.398516  L 645.619917 97.184587  L 645.855826 97.446611  L 646.618804 97.970658  L 647.200011 98.494705  L 649.079283 99.280776  L 649.199992 99.455459  L 650.608743 100.24153  L 651.083095 100.416212  L 652.509484 101.464307  L 654.048534 103.560497  L 654.945853 104.346568  L 655.057457 104.52125  L 657.608682 107.403511  L 658.379774 108.189582  L 659.027816 109.4997  L 659.908863 110.285771  L 660.265283 110.373113  L 661.268912 110.89716  L 663.938455 111.857914  L 664.481271 112.381961  L 666.654545 113.779421  L 666.654545 113.779421  " clip-path="url(#p9d1c074140)" style="fill: none; stroke: #000000; stroke-width:3.9199999999999995; stroke-linecap: square" />
   </g>
  </g>
 </g>
 <defs>
  <clipPath id="p9d1c074140">
   <rect x="0" y="-0" width="698.4" height="122.4" />
  </clipPath>
 </defs>
</svg>